<svg id="Calque_1" data-name="Calque 1" xmlns="http://www.w3.org/2000/svg" viewBox="0 0 264 77.23"><defs><style>.cls-1{fill:#dadada;}</style></defs><path class="cls-1" d="M52.38,47.65q-1,1.4-2.07,2.85c-.72,1-1.43,1.88-2.12,2.72s-1.35,1.51-2,2.23A20.49,20.49,0,0,1,44,57.32a11.8,11.8,0,0,1-2,1.27,4.28,4.28,0,0,1-1.86.48,5,5,0,0,1-3.25-.81A2.81,2.81,0,0,1,36,56.05,6.36,6.36,0,0,1,36.37,54a19.1,19.1,0,0,1,1.08-2.44A27.94,27.94,0,0,1,39,48.9c.57-.9,1.16-1.8,1.76-2.69.4-.64.82-1.26,1.25-1.85s.84-1.18,1.25-1.75c.54-.74,1-1.45,1.52-2.14s.89-1.32,1.25-1.89a16.4,16.4,0,0,0,.86-1.52A2.5,2.5,0,0,0,47.2,36c0-.25-.16-.38-.48-.38a4.29,4.29,0,0,0-1.84.5,15.48,15.48,0,0,0-2,1.25c-.67.5-1.32,1-1.94,1.56s-1.15,1-1.58,1.44c-.69.74-1.39,1.51-2.11,2.31S35.8,44.25,35.14,45s-1.27,1.52-1.83,2.21-1.05,1.29-1.45,1.8l-.35.48c-.54,1-1.1,2-1.66,2.93l-1.58,2.69c-.49.83-.94,1.59-1.36,2.28s-.75,1.24-1,1.65H20.32q1.13-1.57,2.94-4.34t4.28-6.6c.69-1.09,1.39-2.19,2.09-3.31s1.37-2.19,2-3.2,1.17-1.92,1.66-2.76.87-1.52,1.13-2.06c.05-.13.11-.29.17-.48a1.65,1.65,0,0,0,.09-.48c0-.16-.09-.24-.26-.24a3.81,3.81,0,0,0-1.69.53,16.21,16.21,0,0,0-2,1.29q-1,.78-2,1.56c-.64.53-1.14,1-1.52,1.37-.69.71-1.39,1.46-2.11,2.26S23.67,44.2,23,45s-1.26,1.54-1.83,2.26l-1.47,1.85-.26.33v0c-.58,1-1.15,2-1.71,2.95s-1.09,1.89-1.6,2.73-1,1.62-1.38,2.31-.77,1.25-1.06,1.7H8.18L9.59,57q.84-1.24,1.83-2.76c.67-1,1.37-2.07,2.1-3.19S15,48.77,15.7,47.65s1.43-2.23,2.12-3.34,1.33-2.13,1.92-3.09,1.11-1.84,1.56-2.62.78-1.42,1-1.9a3.7,3.7,0,0,0,.17-.4,1.09,1.09,0,0,0,.09-.41.26.26,0,0,0-.3-.29,1.53,1.53,0,0,0-.93.48,12.3,12.3,0,0,0-1.25,1.34c-.48.58-1,1.25-1.54,2s-1.14,1.6-1.77,2.5l-4.23,6.19L12,47.41l4.19-6c.63-.9,1.24-1.75,1.83-2.57s1.15-1.53,1.69-2.16a9.2,9.2,0,0,1,1.51-1.46,2.27,2.27,0,0,1,1.32-.53,2,2,0,0,1,1.66.7,3,3,0,0,1,.54,1.89,9.29,9.29,0,0,1-.84,3.17q-.84,2.07-2.1,4.66c.72-.87,1.51-1.78,2.36-2.74s1.72-1.87,2.61-2.74c.4-.38.93-.85,1.58-1.41s1.34-1.11,2.07-1.63a17.47,17.47,0,0,1,2.18-1.35,4.28,4.28,0,0,1,1.9-.55,2.2,2.2,0,0,1,1.8.7,2.83,2.83,0,0,1,.58,1.89,9.22,9.22,0,0,1-.8,3.15c-.53,1.32-1.22,2.85-2,4.58.72-.86,1.5-1.76,2.33-2.69S38,40.45,38.9,39.58c.46-.48,1-1,1.66-1.56a24.3,24.3,0,0,1,2.08-1.6,13.22,13.22,0,0,1,2.22-1.28,5.37,5.37,0,0,1,2.16-.5,2.33,2.33,0,0,1,1.69.67,2.56,2.56,0,0,1,.69,1.92A7.88,7.88,0,0,1,49,39.56a24.29,24.29,0,0,1-1.19,2.88c-.51,1-1.09,2.14-1.75,3.31s-1.37,2.39-2.12,3.67c-.55.9-1.06,1.77-1.55,2.62s-.93,1.63-1.3,2.35-.67,1.36-.89,1.92a4.1,4.1,0,0,0-.32,1.32c0,.29.16.43.48.43a3.52,3.52,0,0,0,1.59-.43,11,11,0,0,0,1.82-1.17,22.7,22.7,0,0,0,1.92-1.73c.65-.66,1.29-1.37,1.92-2.14S49,50.84,49.7,49.83s1.45-2,2.12-2.9Z" transform="translate(-8.18 -5.94)"/><path class="cls-1" d="M55.27,58.21A5.63,5.63,0,0,0,59,56.48a33.14,33.14,0,0,0,3.84-4.27c.4-.48.79-1,1.15-1.49L65,49.14l.69-1c.23-.32.49-.7.78-1.13s.72-1.12,1.31-2.07l2.4-3.86c1-1.63,2.33-3.79,4-6.48h5.57l-4.19,6.1c-.43.67-1,1.53-1.66,2.59l-2.25,3.48-2.62,4c-.92,1.44-1.82,2.88-2.72,4.32-.37.58-.76,1.21-1.16,1.9s-.84,1.4-1.3,2.14c-.23.44-.41.77-.54,1s-.35.55-.67,1a37.17,37.17,0,0,0,7.5-5,44.29,44.29,0,0,0,6.28-6.6c.29-.42.61-.87,1-1.35s.69-.93,1-1.34l.56.72-.78,1.1a5.79,5.79,0,0,1-.52.77l-.56.72A44.16,44.16,0,0,1,73.81,54Q72,55.8,70,57.46a45.46,45.46,0,0,1-4.11,3,32.31,32.31,0,0,1-4.19,2.35l-2.5,4.06Q57.91,69,56.53,71t-2.85,3.84a42,42,0,0,1-3,3.38q-.9.91-1.92,1.8a15.61,15.61,0,0,1-2.14,1.59,12.51,12.51,0,0,1-2.33,1.13,7.61,7.61,0,0,1-2.51.43,3.44,3.44,0,0,1-2.46-1,3.55,3.55,0,0,1-1-2.71,8,8,0,0,1,.58-3,10.76,10.76,0,0,1,1.45-2.64,24.88,24.88,0,0,1,2.09-2.43,17.5,17.5,0,0,1,2.87-2.37,29.22,29.22,0,0,1,2.55-1.54c.9-.48,1.79-.92,2.68-1.32s1.77-.77,2.64-1.1l2.42-.94,1.94-.67,1.53-2.76c.51-.91,1-1.77,1.41-2.57l2.72-4.9.39-.62-.13.19c-.66.9-1.34,1.73-2,2.5a18.5,18.5,0,0,1-2.08,2,9.37,9.37,0,0,1-2.07,1.35,4.88,4.88,0,0,1-2.07.48,5.15,5.15,0,0,1-3.44-.89,3,3,0,0,1-1-2.33,6.77,6.77,0,0,1,.39-2.09,16.45,16.45,0,0,1,1.08-2.47c.46-.86,1-1.75,1.55-2.66S55,46.9,55.66,46l2-2.69c.52-.7,1-1.43,1.57-2.18s1-1.46,1.43-2.12.76-1.24,1-1.77A3,3,0,0,0,62.06,36c0-.25-.1-.38-.31-.38a1.85,1.85,0,0,0-1,.62A16.25,16.25,0,0,0,59.16,38c-.58.74-1.2,1.59-1.88,2.57l-2.14,3.1c-.49.7-1,1.44-1.53,2.23S52.55,47.39,52,48.13l-.56-.72L53,45.2c.53-.77,1-1.49,1.49-2.16q1.16-1.73,2.22-3.24c.71-1,1.37-1.9,2-2.66a12.48,12.48,0,0,1,1.75-1.83,2.4,2.4,0,0,1,1.47-.67,2.08,2.08,0,0,1,1.68.7,2.79,2.79,0,0,1,.61,1.89,12.06,12.06,0,0,1-1.6,5.14q-1.6,3.12-3.93,7.1c-.52.87-1,1.71-1.52,2.55s-.91,1.6-1.27,2.3-.66,1.34-.89,1.9a3.76,3.76,0,0,0-.34,1.36Q54.67,58.21,55.27,58.21ZM49.53,76.16q1.81-2.4,3.71-5.42t3.55-5.91a.83.83,0,0,1-.33.12l-.28.07-.39.1h.09c-1.73.61-3.42,1.26-5.08,2a28.41,28.41,0,0,0-5,2.78,22.12,22.12,0,0,0-2.74,2.26,19.44,19.44,0,0,0-2,2.3,15.1,15.1,0,0,0-1.32,2.35,6.61,6.61,0,0,0-.58,2.74,2.8,2.8,0,0,0,.69,1.9,2.3,2.3,0,0,0,1.81.79,4.57,4.57,0,0,0,2.25-.63A11.84,11.84,0,0,0,46,80.05a20,20,0,0,0,1.94-2Q48.89,77,49.53,76.16Z" transform="translate(-8.18 -5.94)"/><path class="cls-1" d="M108.5,30.46a72.89,72.89,0,0,1,6-7.32,61.76,61.76,0,0,1,7.28-6.6c-.92-.57-1.92-1.15-3-1.72a26,26,0,0,0-3.5-1.54,27.4,27.4,0,0,0-4-1.1,23,23,0,0,0-4.6-.44,19.51,19.51,0,0,0-8.12,1.8,23.09,23.09,0,0,0-7.08,5,24.77,24.77,0,0,0-5,7.56,23.53,23.53,0,0,0-1.9,9.45,24.42,24.42,0,0,0,.72,6,34.85,34.85,0,0,0,2,5.72l-.34.19a30.34,30.34,0,0,1-2.77-6.12,21.93,21.93,0,0,1-1.08-6.89,25.14,25.14,0,0,1,1.88-9.65,26.23,26.23,0,0,1,5.06-8,24.16,24.16,0,0,1,7.36-5.4,20.37,20.37,0,0,1,8.81-2,21.41,21.41,0,0,1,5.21.6,24.81,24.81,0,0,1,4.43,1.54,27.64,27.64,0,0,1,3.76,2.09c1.15.76,2.21,1.5,3.19,2.2a61.22,61.22,0,0,1,6.1-4,48.17,48.17,0,0,1,6.48-3.12,42.52,42.52,0,0,1,6.78-2,34.39,34.39,0,0,1,7-.72,24.76,24.76,0,0,1,4.26.38,12.9,12.9,0,0,1,4.1,1.44,9,9,0,0,1,3.09,2.86,8.08,8.08,0,0,1,1.21,4.58,10,10,0,0,1-1.28,5.06,12.54,12.54,0,0,1-3.37,3.82,15.32,15.32,0,0,1-4.79,2.42,18.58,18.58,0,0,1-5.55.84,30.36,30.36,0,0,1-6.57-.64A29,29,0,0,1,134.92,25a30.06,30.06,0,0,1-4.58-2.5c-1.43-.94-2.83-1.91-4.22-2.9L123.92,18a62.93,62.93,0,0,0-6.8,7,67.21,67.21,0,0,0-5.6,7.73,57.11,57.11,0,0,0-5.29,10.75,30,30,0,0,0-2,9.75,12.88,12.88,0,0,0,1.67,6.72,8.51,8.51,0,0,0,5.33,3.79,27.27,27.27,0,0,1,1.26-6.48,39.61,39.61,0,0,1,2.72-6.29,35.93,35.93,0,0,1,4.49-6.67,33.06,33.06,0,0,1,5.85-5.45,28.32,28.32,0,0,1,6.94-3.67,22.31,22.31,0,0,1,7.69-1.34,8.89,8.89,0,0,1,2.25.28,5.46,5.46,0,0,1,1.9.94,4.54,4.54,0,0,1,1.29,1.7,6.29,6.29,0,0,1,.48,2.6,13.55,13.55,0,0,1-.83,4.6,23.73,23.73,0,0,1-2,4.32,30.6,30.6,0,0,1-2.06,3.08,35.34,35.34,0,0,1-2.63,3.09,41.44,41.44,0,0,1-3.11,2.93A31.84,31.84,0,0,1,132,59.89a38.44,38.44,0,0,1-7.5,3.67,25.29,25.29,0,0,1-8.79,1.51H114c0,.35-.1.78-.15,1.27s-.06,1.16-.06,2a26.06,26.06,0,0,0,.17,3,20.74,20.74,0,0,0,.65,3.12,18.91,18.91,0,0,0,1.27,3.51,28.76,28.76,0,0,0,1.93,3.26l-.31.34a19.85,19.85,0,0,1-2.63-3,21.6,21.6,0,0,1-3.13-7.24,28.3,28.3,0,0,1-.5-4,4.72,4.72,0,0,1,0-.7V64.78a16.42,16.42,0,0,1-5-1.58,11.18,11.18,0,0,1-3.45-2.76,11,11,0,0,1-2-3.77,14.92,14.92,0,0,1-.67-4.56,23.29,23.29,0,0,1,.58-5,35.47,35.47,0,0,1,1.68-5.4,49.69,49.69,0,0,1,2.68-5.59A58.57,58.57,0,0,1,108.5,30.46ZM118,52.78a45.4,45.4,0,0,0-2.48,5.6,31.13,31.13,0,0,0-1.45,5.78,4.07,4.07,0,0,0,.78,0l.78,0a25.06,25.06,0,0,0,8.68-1.46,39.44,39.44,0,0,0,7.26-3.53,31.25,31.25,0,0,0,6.46-5.35,36.23,36.23,0,0,0,4.56-6.08,30.17,30.17,0,0,0,1.83-4,12.11,12.11,0,0,0,.84-4.42,4.72,4.72,0,0,0-1.08-3.28,3.84,3.84,0,0,0-3.06-1.23,15.56,15.56,0,0,0-6.74,1.61A30.15,30.15,0,0,0,128,40.62a41.17,41.17,0,0,0-5.64,5.78A45,45,0,0,0,118,52.78Zm28.78-26.35a17.25,17.25,0,0,0,5.38-.84,14.75,14.75,0,0,0,4.51-2.35,11.92,11.92,0,0,0,3.11-3.58A9,9,0,0,0,161,15.15a7,7,0,0,0-1.1-4,8.28,8.28,0,0,0-2.83-2.56,12.65,12.65,0,0,0-3.85-1.35,23.52,23.52,0,0,0-4.1-.38,27.84,27.84,0,0,0-6.63.79,36.14,36.14,0,0,0-6.33,2.18,41.36,41.36,0,0,0-5.94,3.32,57.3,57.3,0,0,0-5.51,4.17l.39.29q2.2,1.68,4.42,3.26a30.86,30.86,0,0,0,4.82,2.81,30.46,30.46,0,0,0,5.64,2A27.65,27.65,0,0,0,146.82,26.43Z" transform="translate(-8.18 -5.94)"/><path class="cls-1" d="M163.28,34.64l-1.95,2.83c-.5.74-1,1.47-1.52,2.19s-1,1.44-1.52,2.18c-1.1,1.63-2.17,3.26-3.23,4.87S153,50,152,51.58c-.24.36-.5.78-.78,1.28s-.57,1-.83,1.51a15.19,15.19,0,0,0-.67,1.51,3.67,3.67,0,0,0-.28,1.27.87.87,0,0,0,.26.67,1.58,1.58,0,0,0,1,.24,4.23,4.23,0,0,0,1.82-.48,11.34,11.34,0,0,0,2.09-1.34,22.82,22.82,0,0,0,2.25-2c.76-.78,1.52-1.62,2.27-2.52.57-.7,1.18-1.46,1.81-2.28s1.24-1.64,1.82-2.47l.56.72L161.55,50q-.92,1.23-1.77,2.28c-.81,1-1.62,1.86-2.44,2.69a22.68,22.68,0,0,1-2.42,2.14,14.06,14.06,0,0,1-2.31,1.41,4.81,4.81,0,0,1-2.08.53,3.52,3.52,0,0,1-2.71-.81,3.07,3.07,0,0,1-.7-2.07,9,9,0,0,1,.63-3.09,31.4,31.4,0,0,1,1.36-3.2c.31-.67.64-1.32,1-2s.7-1.36,1.12-2.14.91-1.67,1.47-2.66,1.25-2.16,2.05-3.51c-.6.8-1.22,1.63-1.83,2.47l-1.84,2.52-2.55,3.51-.56-.72q1.34-1.83,2.79-3.79t2.78-3.72q1.35-1.76,2.46-3.15c.75-.93,1.34-1.63,1.78-2.11Zm.17-9.41a2.08,2.08,0,0,1,1.53.63,2.12,2.12,0,0,1,.63,1.58,2.22,2.22,0,0,1-.63,1.61,2.06,2.06,0,0,1-1.53.65,2,2,0,0,1-1.53-.65,2.22,2.22,0,0,1-.63-1.61,2.12,2.12,0,0,1,.63-1.58A2.05,2.05,0,0,1,163.45,25.23Z" transform="translate(-8.18 -5.94)"/><path class="cls-1" d="M190.71,47.65l-1.12,1.58c-.49.71-1,1.39-1.52,2.07s-1,1.31-1.51,1.92a33.86,33.86,0,0,1-4.19,4.2,6.27,6.27,0,0,1-3.89,1.65,4.8,4.8,0,0,1-3.27-.86,3.09,3.09,0,0,1-.92-2.35,6.3,6.3,0,0,1,.43-2.12,21.45,21.45,0,0,1,1.13-2.44c.46-.87,1-1.76,1.6-2.69s1.23-1.86,1.9-2.79l1.94-2.73,1.64-2.28c.52-.72,1-1.39,1.36-2a16.83,16.83,0,0,0,.93-1.65,2.92,2.92,0,0,0,.35-1.16c0-.25-.16-.38-.48-.38a4.21,4.21,0,0,0-1.83.5,14.27,14.27,0,0,0-2,1.25q-1,.75-1.95,1.56c-.62.55-1.14,1-1.57,1.44-.7.71-1.4,1.46-2.12,2.26s-1.41,1.59-2.05,2.37l-1.84,2.26-1.47,1.85-.26.33v0c-.57,1-1.14,2-1.7,3l-1.6,2.71-1.38,2.31c-.42.69-.78,1.25-1.06,1.7h-5.45l.43-.77L161.38,55l5.48-8.35c.61-1,1.21-1.94,1.82-2.93s1.18-1.93,1.72-2.83,1-1.7,1.45-2.42.73-1.28.93-1.66c.06-.13.12-.29.19-.48a1.25,1.25,0,0,0,.11-.48q0-.24-.3-.24c-.43,0-1.09.54-2,1.61s-1.89,2.44-3,4.1L163,48.13l-.56-.72,1.08-1.54,1-1.53,2.59-3.65c.58-.83,1.13-1.62,1.67-2.35a21.47,21.47,0,0,1,1.53-1.92,9,9,0,0,1,1.4-1.3,2.25,2.25,0,0,1,1.28-.48,2,2,0,0,1,1.62.7,2.83,2.83,0,0,1,.58,1.89,9.58,9.58,0,0,1-.82,3.15c-.54,1.39-1.24,2.93-2.07,4.63.69-.83,1.47-1.74,2.33-2.71s1.73-1.88,2.59-2.72c.46-.48,1-1,1.67-1.56a25.45,25.45,0,0,1,2.05-1.6,12.68,12.68,0,0,1,2.2-1.28,5.37,5.37,0,0,1,2.16-.5,2.41,2.41,0,0,1,1.71.67,2.54,2.54,0,0,1,.71,1.92,7.52,7.52,0,0,1-.39,2.21,22.07,22.07,0,0,1-1,2.64c-.43.93-.93,1.9-1.5,2.93s-1.15,2-1.76,3l-.58.94q-.28.45-.54.93l-1.44,2.43c-.46.78-.86,1.5-1.21,2.16a17.73,17.73,0,0,0-.83,1.77,3.87,3.87,0,0,0-.3,1.28c0,.35.16.52.48.52a5.67,5.67,0,0,0,3.39-1.53,27.43,27.43,0,0,0,3.86-4c.67-.83,1.37-1.73,2.12-2.71s1.45-1.94,2.12-2.9Z" transform="translate(-8.18 -5.94)"/><path class="cls-1" d="M190.75,56.24a1.39,1.39,0,0,0,.28.89,2.49,2.49,0,0,0,.69.6,3.46,3.46,0,0,0,.91.36,4,4,0,0,0,.93.12,8.13,8.13,0,0,0,3.91-1.06,20.31,20.31,0,0,0,3.82-2.69,30.42,30.42,0,0,0,3.52-3.64c1.11-1.35,2.11-2.64,3-3.89l.56.72q-1.33,1.88-3,3.91a31.74,31.74,0,0,1-3.6,3.72,20.66,20.66,0,0,1-4,2.78,9.07,9.07,0,0,1-4.24,1.11,6.23,6.23,0,0,1-1.83-.29A5.17,5.17,0,0,1,190,58a4.76,4.76,0,0,1-1.25-1.56,5,5,0,0,1-.5-2.3,15.27,15.27,0,0,1,1.23-5.69,27.36,27.36,0,0,1,3.31-5.88,26.56,26.56,0,0,1,2.64-3.07,23.92,23.92,0,0,1,3-2.55,15.69,15.69,0,0,1,3.11-1.75,8.09,8.09,0,0,1,3.05-.65,9.07,9.07,0,0,1,1.12.08,4.3,4.3,0,0,1,1.15.28,2,2,0,0,1,.88.7,2.1,2.1,0,0,1,.35,1.25,4.27,4.27,0,0,1-.52,2,11.14,11.14,0,0,1-1.27,1.94,18.94,18.94,0,0,1-1.6,1.73c-.56.53-1,.95-1.45,1.27A23.18,23.18,0,0,1,199,46.38a10.25,10.25,0,0,1-4.25,1.12c-.58.9-1.1,1.78-1.58,2.64s-.89,1.68-1.25,2.43a17.37,17.37,0,0,0-.85,2.09A5.5,5.5,0,0,0,190.75,56.24Zm15-20.64A4.73,4.73,0,0,0,203,37a22.55,22.55,0,0,0-3.14,3.29c-.89,1.12-1.72,2.22-2.5,3.31s-1.46,2.08-2,3a11.87,11.87,0,0,0,3.78-1.22A20.58,20.58,0,0,0,202.72,43q.56-.48,1.32-1.2a18,18,0,0,0,1.44-1.56,11.35,11.35,0,0,0,1.19-1.73,3.35,3.35,0,0,0,.5-1.6,1.16,1.16,0,0,0-.43-1A1.59,1.59,0,0,0,205.79,35.6Zm.56-10.51a1.16,1.16,0,0,1,.52-.53,1.39,1.39,0,0,1,.64-.14,1.57,1.57,0,0,1,1.24.6,2,2,0,0,1,.49,1.27,1.67,1.67,0,0,1-.65,1.29l-4.23,3.22-3.5,2.59-.39-.43,2.29-3c.66-.84,1.27-1.62,1.82-2.36S205.71,26,206.35,25.09Z" transform="translate(-8.18 -5.94)"/><path class="cls-1" d="M247.86,47.65q-1,1.4-2.07,2.85c-.72,1-1.42,1.88-2.12,2.72s-1.34,1.51-2,2.23a19.43,19.43,0,0,1-2.09,1.87,12.19,12.19,0,0,1-2,1.27,4.35,4.35,0,0,1-1.86.48,5,5,0,0,1-3.25-.81,2.77,2.77,0,0,1-.94-2.21,6.11,6.11,0,0,1,.41-2.07,20.46,20.46,0,0,1,1.07-2.44q.67-1.3,1.53-2.64c.57-.9,1.16-1.8,1.76-2.69.41-.64.82-1.26,1.25-1.85s.85-1.18,1.25-1.75c.55-.74,1.05-1.45,1.53-2.14s.89-1.32,1.25-1.89.64-1.08.86-1.52a2.61,2.61,0,0,0,.32-1.08c0-.25-.16-.38-.47-.38a4.25,4.25,0,0,0-1.84.5,14.27,14.27,0,0,0-2,1.25q-1,.75-2,1.56c-.62.55-1.14,1-1.57,1.44-.69.74-1.4,1.51-2.12,2.31s-1.41,1.59-2.07,2.37-1.28,1.52-1.84,2.21L227.34,49l-.34.48c-.55,1-1.1,2-1.67,2.93l-1.57,2.69-1.36,2.28c-.42.68-.76,1.24-1,1.65h-5.57q1.13-1.57,2.94-4.34t4.27-6.6l2.1-3.31c.7-1.12,1.37-2.19,2-3.2s1.17-1.92,1.66-2.76.86-1.52,1.12-2.06a4.13,4.13,0,0,0,.18-.48,2,2,0,0,0,.08-.48c0-.16-.08-.24-.26-.24a3.77,3.77,0,0,0-1.68.53,15.52,15.52,0,0,0-2,1.29c-.69.52-1.36,1-2,1.56s-1.14,1-1.51,1.37c-.69.71-1.4,1.46-2.12,2.26s-1.4,1.59-2.05,2.37l-1.84,2.26-1.47,1.85-.26.33v0l-1.7,2.95c-.56,1-1.1,1.89-1.6,2.73s-1,1.62-1.38,2.31-.77,1.25-1.06,1.7h-5.53c.37-.57.84-1.28,1.4-2.11s1.18-1.75,1.84-2.76L209,51q1.11-1.68,2.19-3.36c.72-1.12,1.42-2.23,2.11-3.34l1.93-3.09c.59-1,1.1-1.84,1.55-2.62s.79-1.42,1-1.9l.17-.4a1.09,1.09,0,0,0,.09-.41c0-.19-.11-.29-.31-.29a1.53,1.53,0,0,0-.93.48,13.38,13.38,0,0,0-1.25,1.34c-.47.58-1,1.25-1.53,2s-1.14,1.6-1.77,2.5L208,48.13l-.56-.72,4.19-6c.63-.9,1.25-1.75,1.84-2.57s1.15-1.53,1.68-2.16a9.61,9.61,0,0,1,1.51-1.46,2.32,2.32,0,0,1,1.32-.53,2,2,0,0,1,1.66.7,2.93,2.93,0,0,1,.54,1.89,9.29,9.29,0,0,1-.84,3.17q-.84,2.07-2.09,4.66c.72-.87,1.5-1.78,2.35-2.74s1.72-1.87,2.62-2.74c.4-.38.92-.85,1.57-1.41s1.34-1.11,2.08-1.63a16.77,16.77,0,0,1,2.18-1.35,4.25,4.25,0,0,1,1.9-.55,2.18,2.18,0,0,1,1.79.7,2.83,2.83,0,0,1,.58,1.89,9.15,9.15,0,0,1-.79,3.15c-.54,1.32-1.22,2.85-2.06,4.58.72-.86,1.5-1.76,2.34-2.69s1.68-1.82,2.55-2.69c.46-.48,1-1,1.66-1.56a25.8,25.8,0,0,1,2.07-1.6,13.7,13.7,0,0,1,2.23-1.28,5.37,5.37,0,0,1,2.16-.5,2.31,2.31,0,0,1,1.68.67,2.56,2.56,0,0,1,.69,1.92,7.57,7.57,0,0,1-.43,2.33,22.71,22.71,0,0,1-1.19,2.88c-.5,1-1.08,2.14-1.75,3.31s-1.36,2.39-2.11,3.67c-.55.9-1.07,1.77-1.56,2.62s-.92,1.63-1.29,2.35a19.08,19.08,0,0,0-.89,1.92,3.84,3.84,0,0,0-.32,1.32c0,.29.15.43.47.43a3.59,3.59,0,0,0,1.6-.43,11,11,0,0,0,1.81-1.17,21.32,21.32,0,0,0,1.93-1.73c.64-.66,1.28-1.37,1.92-2.14s1.37-1.75,2.12-2.76,1.45-2,2.11-2.9Z" transform="translate(-8.18 -5.94)"/><path class="cls-1" d="M267.22,51.73c.57-.74,1.17-1.52,1.79-2.35s1.22-1.65,1.79-2.45l.57.72c-.58.8-1.16,1.62-1.75,2.47a25.22,25.22,0,0,1-1.75,2.23c-.75.93-1.51,1.8-2.27,2.62a23.15,23.15,0,0,1-2.27,2.13,11.47,11.47,0,0,1-2.2,1.44,4.55,4.55,0,0,1-2,.53,2.85,2.85,0,0,1-2.35-.81,3.38,3.38,0,0,1-.63-2.12,7.85,7.85,0,0,1,.38-2.28,23.35,23.35,0,0,1,.93-2.56c-.83,1-1.65,2-2.46,2.9a26.24,26.24,0,0,1-2.41,2.42,18.63,18.63,0,0,1-2.48,1.85,4.09,4.09,0,0,1-2.14.7A2.25,2.25,0,0,1,245.79,58a5.83,5.83,0,0,1-.65-2.85,12.44,12.44,0,0,1,.35-2.72,27.73,27.73,0,0,1,.9-3.07c.37-1,.8-2.07,1.27-3.09a28.91,28.91,0,0,1,1.49-2.84A28.68,28.68,0,0,1,251.84,40a23.78,23.78,0,0,1,3.08-2.83,15,15,0,0,1,3.27-2,8.32,8.32,0,0,1,3.28-.72,2.47,2.47,0,0,1,2.72,2.79,9.86,9.86,0,0,1-.13,1.53l2.6-4.22h5.53l-5,7.3Q264,46.68,261,51.58c-.23.36-.49.78-.77,1.28s-.57,1-.82,1.53a15.32,15.32,0,0,0-.67,1.54,3.72,3.72,0,0,0-.29,1.32c0,.54.31.81.91.81a3.82,3.82,0,0,0,1.75-.48A10.34,10.34,0,0,0,263,56.24a25.78,25.78,0,0,0,2.07-2C265.78,53.46,266.5,52.62,267.22,51.73ZM252.1,55.9A34.72,34.72,0,0,0,255,53q1.47-1.68,2.89-3.65A29.12,29.12,0,0,0,260.09,46q1-1.79,1.86-3.51c.34-.73.67-1.55,1-2.45a8,8,0,0,0,.48-2.73,2.79,2.79,0,0,0-.26-1.15.92.92,0,0,0-.91-.58A3.72,3.72,0,0,0,260,36.7a22.44,22.44,0,0,0-2.61,2.74q-1.34,1.64-2.63,3.5c-.87,1.25-1.63,2.39-2.29,3.41s-1.44,2.3-2.08,3.43-1.18,2.2-1.64,3.2-.83,1.88-1.1,2.66a5.92,5.92,0,0,0-.41,1.9.6.6,0,0,0,.69.67,3.89,3.89,0,0,0,1.84-.6A14.43,14.43,0,0,0,252.1,55.9Z" transform="translate(-8.18 -5.94)"/></svg>